Coordinates
nRows=17
nColumns=24

# SIMM Motion File Header:
name Coordinates
datacolumns 24
datarows 17
otherdata 1
range 0.50500000000000000000 0.52100000000000002000
endheader
time	pelvis_tx	pelvis_ty	pelvis_tz	pelvis_tilt	pelvis_list	pelvis_rotation	hip_flexion_r	hip_adduction_r	hip_rotation_r	knee_angle_r	ankle_angle_r	subtalar_angle_r	mtp_angle_r	hip_flexion_l	hip_adduction_l	hip_rotation_l	knee_angle_l	ankle_angle_l	subtalar_angle_l	mtp_angle_l	lumbar_extension	lumbar_bending	lumbar_rotation
      0.50500000000000000000	      1.51811462713677910000	      0.94702460384922060000	     -0.30206246559777183000	     -2.41192801405344910000	      5.53334074579019040000	     -2.06611026465523520000	     13.39997628515260400000	     -6.07600450888013910000	     13.16269906855164600000	    -59.77087694658342800000	    -19.62792960979491900000	      0.00000000000000014508	     -0.00000000000000005408	      1.92329471489433490000	      9.47453912836373570000	      8.38696057745290520000	     -1.07018474378267640000	      3.14034505162135600000	      0.00000000000000593566	     -0.00000000000001107650	     -0.54345768806428973000	     -4.52683155425951170000	      0.66387029448096513000
      0.50600000000000001000	      1.51846399925674790000	      0.94702831740856208000	     -0.30215466714491318000	     -2.40819712940478280000	      5.52026448378414790000	     -2.06151226663044620000	     13.49994813192584800000	     -6.05856213961254930000	     13.18246891475310900000	    -59.83017697002777200000	    -19.35318680238105300000	      0.00000000000000014241	     -0.00000000000000005104	      1.89473167145153680000	      9.47087122499332250000	      8.39490231858934520000	     -1.07121921785212070000	      3.16117386431332690000	      0.00000000000000614819	     -0.00000000000001154771	     -0.55664531430953679000	     -4.50359518424182960000	      0.64500023644120341000
      0.50700000000000001000	      1.51881323213784780000	      0.94703300435647120000	     -0.30224806439533219000	     -2.40411229925451500000	      5.50891104327562340000	     -2.05647805723351600000	     13.59924748117383000000	     -6.04348094549180370000	     13.20175771367394700000	    -59.88650435325345700000	    -19.08758502996719000000	      0.00000000000000013690	     -0.00000000000000004210	      1.86590906420609560000	      9.46938093577395530000	      8.40213851047439420000	     -1.07199335805204690000	      3.17220225628714700000	      0.00000000000000639946	     -0.00000000000001206186	     -0.57016621030386372000	     -4.48234466185736660000	      0.62611082148859765000
      0.50800000000000001000	      1.51916227606164770000	      0.94703900633349258000	     -0.30234308067185039000	     -2.39955027096519300000	      5.49988812659538160000	     -2.05085272501361440000	     13.69763811924785400000	     -6.03159404687907760000	     13.22039519872428500000	    -59.93880489153914900000	    -18.83436534584385000000	      0.00000000000000012749	     -0.00000000000000002513	      1.83673775567456720000	      9.47083680774365000000	      8.40842099730798150000	     -1.07241713729547650000	      3.16997731067952640000	      0.00000000000000670380	     -0.00000000000001263523	     -0.58413600168139801000	     -4.46378042990490530000	      0.60719566104424949000
      0.50900000000000001000	      1.51951131998544750000	      0.94704500831051397000	     -0.30243809694836865000	     -2.39498824267587150000	      5.49086520991514070000	     -2.04522739279371240000	     13.79602875732187600000	     -6.01970714826635160000	     13.23903268377462300000	    -59.99110542982484200000	    -18.58114566172050900000	      0.00000000000000011808	     -0.00000000000000000815	      1.80756644714303900000	      9.47229267971334470000	      8.41470348414156710000	     -1.07284091653890610000	      3.16775236507190620000	      0.00000000000000700813	     -0.00000000000001320860	     -0.59810579305893241000	     -4.44521619795244320000	      0.58828050059990122000
      0.51000000000000001000	      1.51985998237470540000	      0.94705204348965311000	     -0.30253566302941060000	     -2.39035822693934290000	      5.48453225417810230000	     -2.03844410626283070000	     13.89346056723486300000	     -6.01165880769513540000	     13.25650940677135700000	    -60.03608033622879200000	    -18.34788185999138200000	      0.00000000000000009836	      0.00000000000000002482	      1.77877598991317830000	      9.47735253952586200000	      8.42024548701136940000	     -1.07362047089184400000	      3.15353275334738290000	      0.00000000000000731611	     -0.00000000000001383867	     -0.61198965593920551000	     -4.42975128637406090000	      0.56951741401901035000
      0.51100000000000001000	      1.52020861263469540000	      0.94705916567540438000	     -0.30263344383112445000	     -2.38572248593634260000	      5.47842582177485760000	     -2.03156330765781770000	     13.99081163361433200000	     -6.00393371455497250000	     13.27388838125215600000	    -60.08043834648033500000	    -18.11629855589927700000	      0.00000000000000007778	      0.00000000000000005913	      1.75001760441534460000	      9.48271589346277110000	      8.42572513325234420000	     -1.07442998529460730000	      3.13830306310725820000	      0.00000000000000762440	     -0.00000000000001447351	     -0.62586628272569200000	     -4.41454737054931810000	      0.55076713367555585000
      0.51200000000000001000	      1.52055711349936180000	      0.94706603551548318000	     -0.30273200895493679000	     -2.38141518141354960000	      5.47253339554058820000	     -2.02416517773280760000	     14.08801727895445000000	     -5.99666403423424210000	     13.29075649276841500000	    -60.12177294839913300000	    -17.89048950482346400000	      0.00000000000000005527	      0.00000000000000009567	      1.72185849952402360000	      9.48855177715010710000	      8.43150457408392030000	     -1.07592642407813450000	      3.12596108654855830000	      0.00000000000000793629	     -0.00000000000001514199	     -0.63930484570417578000	     -4.39959982681584010000	      0.53219597661419049000
      0.51300000000000001000	      1.52090543737495220000	      0.94707256019295327000	     -0.30283164688756370000	     -2.37755711777234250000	      5.46693369050450690000	     -2.01605943342183870000	     14.18502401497767500000	     -5.99001727514430640000	     13.30692583742291800000	    -60.15897208210213900000	    -17.67257857308539600000	      0.00000000000000003012	      0.00000000000000013524	      1.69451910061608820000	      9.49503399489121590000	      8.43769407894398780000	     -1.07836244945753430000	      3.11756897280411230000	      0.00000000000000825308	     -0.00000000000001585647	     -0.65214421771832309000	     -4.38500295309387320000	      0.51386982735801090000
      0.51400000000000001000	      1.52125376125054280000	      0.94707908487042336000	     -0.30293128482019060000	     -2.37369905413113580000	      5.46133398546842660000	     -2.00795368911086980000	     14.28203075100089900000	     -5.98337051605436980000	     13.32309518207742000000	    -60.19617121580515100000	    -17.45466764134732800000	      0.00000000000000000497	      0.00000000000000017481	      1.66717970170815290000	      9.50151621263232290000	      8.44388358380405530000	     -1.08079847483693410000	      3.10917685905966620000	      0.00000000000000856988	     -0.00000000000001657095	     -0.66498358973247029000	     -4.37040607937190640000	      0.49554367810183136000
      0.51500000000000001000	      1.52160197626868480000	      0.94708433458504515000	     -0.30303167816886983000	     -2.37075504139842290000	      5.45475745739781550000	     -1.99896352424865720000	     14.37890750054803500000	     -5.97580800247793940000	     13.33833305399716800000	    -60.22811054646133800000	    -17.24132776169529500000	     -0.00000000000000002596	      0.00000000000000019254	      1.64125722472970210000	      9.50727322685542300000	      8.45146241520884980000	     -1.08507066436422120000	      3.11829795020468300000	      0.00000000000000887065	     -0.00000000000001726776	     -0.67666818891551250000	     -4.35474648015079600000	      0.47779785440398725000
      0.51600000000000001000	      1.52195018211987110000	      0.94708947693422907000	     -0.30313213513161857000	     -2.36788800147811070000	      5.44809867043386740000	     -1.98989888176540440000	     14.47577330385076900000	     -5.96816837262971320000	     13.35349248600136800000	    -60.25960694573434800000	    -17.02837281326691600000	     -0.00000000000000005739	      0.00000000000000020842	      1.61545406765439030000	      9.51296917122581930000	      8.45915824269175860000	     -1.08949747845035880000	      3.12889383954963750000	      0.00000000000000917006	     -0.00000000000001796308	     -0.68825554393888222000	     -4.33899738813478830000	      0.46010090029307560000
      0.51700000000000002000	      1.52229849378320600000	      0.94709334134314294000	     -0.30323238675534836000	     -2.36569478151465960000	      5.43959440430313550000	     -1.98022057782569870000	     14.57206802175207000000	     -5.95844780296920180000	     13.36787342002412700000	    -60.28592413039980600000	    -16.81401807771164100000	     -0.00000000000000009360	      0.00000000000000022930	      1.59062050363639250000	      9.51687042161769270000	      8.46847245360529040000	     -1.09564704567631940000	      3.16368044923036210000	      0.00000000000000949857	     -0.00000000000001871838	     -0.69894469293662975000	     -4.32127539911682310000	      0.44341530739751239000
      0.51800000000000002000	      1.52264680544654100000	      0.94709720575205680000	     -0.30333263837907815000	     -2.36350156155120810000	      5.43109013817240350000	     -1.97054227388599280000	     14.66836273965337000000	     -5.94872723330868960000	     13.38225435404688600000	    -60.31224131506526500000	    -16.59966334215636500000	     -0.00000000000000012982	      0.00000000000000025018	      1.56578693961839500000	      9.52077167200956430000	      8.47778666451882220000	     -1.10179661290227980000	      3.19846705891108710000	      0.00000000000000982707	     -0.00000000000001947368	     -0.70963384193437729000	     -4.30355341009885790000	      0.42672971450194919000
      0.51900000000000002000	      1.52299533129263450000	      0.94710093204816304000	     -0.30343213922127876000	     -2.36121441680738940000	      5.42145423320093210000	     -1.96078835372688090000	     14.76380371154197800000	     -5.93764465027550870000	     13.39639648581915100000	    -60.33580057147165100000	    -16.38207464614335200000	     -0.00000000000000017229	      0.00000000000000027575	      1.54077747904079950000	      9.52345722824435550000	      8.48764185718547810000	     -1.10831598133490460000	      3.24440998669693360000	      0.00000000000001013924	     -0.00000000000002019977	     -0.72034518166211181000	     -4.28468075949190830000	      0.41086175477406728000
      0.52000000000000002000	      1.52334407132148670000	      0.94710452023146163000	     -0.30353088928195027000	     -2.35883334728320370000	      5.41068668938872130000	     -1.95095881734836300000	     14.85839093741789800000	     -5.92520005386966010000	     13.41029981534092400000	    -60.35660189961896500000	    -16.16125198967260300000	     -0.00000000000000022101	      0.00000000000000030599	      1.51559212190360660000	      9.52492709032206440000	      8.49803803160525280000	     -1.11520515097419340000	      3.30150923258788480000	      0.00000000000001043508	     -0.00000000000002089665	     -0.73107871211983333000	     -4.26465744729597680000	      0.39581142821386534000
      0.52100000000000002000	      1.52369281135033900000	      0.94710810841476012000	     -0.30362963934262172000	     -2.35645227775901760000	      5.39991914557650960000	     -1.94112928096984530000	     14.95297816329381600000	     -5.91275545746380970000	     13.42420314486269500000	    -60.37740322776628000000	    -15.94042933320185400000	     -0.00000000000000026974	      0.00000000000000033624	      1.49040676476641230000	      9.52639695239977340000	      8.50843420602502930000	     -1.12209432061348150000	      3.35860847847884210000	      0.00000000000001073092	     -0.00000000000002159354	     -0.74181224257755540000	     -4.24463413510004450000	      0.38076110165366484000
